<mxfile host="app.diagrams.net" modified="2022-09-22T02:57:13.533Z" agent="5.0 (Windows NT 10.0; Win64; x64) AppleWebKit/537.36 (KHTML, like Gecko) Chrome/105.0.0.0 Safari/537.36" etag="-C9zbPcxNlGNdX5C2Z2p" version="20.3.2" type="github">
  <diagram name="Page-1" id="e56a1550-8fbb-45ad-956c-1786394a9013">
    <mxGraphModel dx="2840" dy="1158" grid="1" gridSize="10" guides="1" tooltips="1" connect="1" arrows="1" fold="1" page="1" pageScale="1" pageWidth="1100" pageHeight="850" background="none" math="0" shadow="0">
      <root>
        <mxCell id="0" />
        <mxCell id="1" parent="0" />
        <mxCell id="KcR6Oc8ULUUjkKVTyV3o-144" style="edgeStyle=orthogonalEdgeStyle;rounded=0;orthogonalLoop=1;jettySize=auto;html=1;exitX=0.5;exitY=0;exitDx=0;exitDy=0;entryX=0.5;entryY=1;entryDx=0;entryDy=0;" parent="1" source="KcR6Oc8ULUUjkKVTyV3o-69" target="KcR6Oc8ULUUjkKVTyV3o-119" edge="1">
          <mxGeometry relative="1" as="geometry" />
        </mxCell>
        <mxCell id="KcR6Oc8ULUUjkKVTyV3o-146" style="edgeStyle=orthogonalEdgeStyle;rounded=0;orthogonalLoop=1;jettySize=auto;html=1;exitX=0.5;exitY=1;exitDx=0;exitDy=0;" parent="1" source="KcR6Oc8ULUUjkKVTyV3o-69" target="KcR6Oc8ULUUjkKVTyV3o-101" edge="1">
          <mxGeometry relative="1" as="geometry">
            <Array as="points">
              <mxPoint x="785" y="850" />
              <mxPoint x="553" y="850" />
            </Array>
          </mxGeometry>
        </mxCell>
        <mxCell id="KcR6Oc8ULUUjkKVTyV3o-157" style="edgeStyle=orthogonalEdgeStyle;rounded=0;orthogonalLoop=1;jettySize=auto;html=1;exitX=0.25;exitY=1;exitDx=0;exitDy=0;entryX=1;entryY=0.5;entryDx=0;entryDy=0;" parent="1" source="KcR6Oc8ULUUjkKVTyV3o-69" target="KcR6Oc8ULUUjkKVTyV3o-82" edge="1">
          <mxGeometry relative="1" as="geometry">
            <Array as="points">
              <mxPoint x="740" y="640" />
              <mxPoint x="740" y="738" />
            </Array>
          </mxGeometry>
        </mxCell>
        <mxCell id="KcR6Oc8ULUUjkKVTyV3o-163" style="edgeStyle=orthogonalEdgeStyle;rounded=0;orthogonalLoop=1;jettySize=auto;html=1;exitX=0;exitY=1;exitDx=0;exitDy=0;entryX=1;entryY=0.5;entryDx=0;entryDy=0;" parent="1" source="KcR6Oc8ULUUjkKVTyV3o-69" target="KcR6Oc8ULUUjkKVTyV3o-81" edge="1">
          <mxGeometry relative="1" as="geometry">
            <Array as="points">
              <mxPoint x="630" y="640" />
              <mxPoint x="630" y="704" />
            </Array>
          </mxGeometry>
        </mxCell>
        <mxCell id="KcR6Oc8ULUUjkKVTyV3o-167" style="edgeStyle=orthogonalEdgeStyle;rounded=0;orthogonalLoop=1;jettySize=auto;html=1;exitX=0;exitY=0.75;exitDx=0;exitDy=0;entryX=1;entryY=0.5;entryDx=0;entryDy=0;" parent="1" source="KcR6Oc8ULUUjkKVTyV3o-69" target="KcR6Oc8ULUUjkKVTyV3o-80" edge="1">
          <mxGeometry relative="1" as="geometry" />
        </mxCell>
        <mxCell id="KcR6Oc8ULUUjkKVTyV3o-170" style="edgeStyle=orthogonalEdgeStyle;rounded=0;orthogonalLoop=1;jettySize=auto;html=1;exitX=0;exitY=0.5;exitDx=0;exitDy=0;entryX=1;entryY=1;entryDx=0;entryDy=0;" parent="1" source="KcR6Oc8ULUUjkKVTyV3o-69" target="KcR6Oc8ULUUjkKVTyV3o-79" edge="1">
          <mxGeometry relative="1" as="geometry" />
        </mxCell>
        <mxCell id="KcR6Oc8ULUUjkKVTyV3o-174" style="edgeStyle=orthogonalEdgeStyle;rounded=0;orthogonalLoop=1;jettySize=auto;html=1;exitX=0;exitY=0;exitDx=0;exitDy=0;entryX=1;entryY=0.5;entryDx=0;entryDy=0;" parent="1" source="KcR6Oc8ULUUjkKVTyV3o-69" target="KcR6Oc8ULUUjkKVTyV3o-77" edge="1">
          <mxGeometry relative="1" as="geometry">
            <Array as="points">
              <mxPoint x="680" y="550" />
              <mxPoint x="680" y="468" />
            </Array>
          </mxGeometry>
        </mxCell>
        <mxCell id="FEJOQUFaC0oeGkW2y8xq-22" style="edgeStyle=orthogonalEdgeStyle;rounded=0;orthogonalLoop=1;jettySize=auto;html=1;fontSize=18;" edge="1" parent="1" source="KcR6Oc8ULUUjkKVTyV3o-69">
          <mxGeometry relative="1" as="geometry">
            <mxPoint x="1070" y="595" as="targetPoint" />
          </mxGeometry>
        </mxCell>
        <mxCell id="FEJOQUFaC0oeGkW2y8xq-147" style="edgeStyle=none;rounded=0;orthogonalLoop=1;jettySize=auto;html=1;entryX=1;entryY=1;entryDx=0;entryDy=0;fontSize=18;exitX=0;exitY=0.25;exitDx=0;exitDy=0;" edge="1" parent="1" source="KcR6Oc8ULUUjkKVTyV3o-69" target="KcR6Oc8ULUUjkKVTyV3o-78">
          <mxGeometry relative="1" as="geometry">
            <Array as="points">
              <mxPoint x="580" y="573" />
              <mxPoint x="580" y="520" />
            </Array>
          </mxGeometry>
        </mxCell>
        <UserObject label="Employees" lucidchartObjectId="xz9R6bpW.FXE" id="KcR6Oc8ULUUjkKVTyV3o-69">
          <mxCell style="html=1;overflow=block;blockSpacing=1;whiteSpace=wrap;fontSize=16.7;fontColor=#333333;align=center;spacing=3.8;strokeColor=#5e5e5e;strokeOpacity=100;rounded=1;absoluteArcSize=1;arcSize=9;strokeWidth=2.3;" parent="1" vertex="1">
            <mxGeometry x="717.5" y="550" width="135" height="90" as="geometry" />
          </mxCell>
        </UserObject>
        <mxCell id="FEJOQUFaC0oeGkW2y8xq-31" style="edgeStyle=orthogonalEdgeStyle;rounded=0;orthogonalLoop=1;jettySize=auto;html=1;entryX=0;entryY=0.5;entryDx=0;entryDy=0;fontSize=18;" edge="1" parent="1" source="KcR6Oc8ULUUjkKVTyV3o-70" target="KcR6Oc8ULUUjkKVTyV3o-76">
          <mxGeometry relative="1" as="geometry" />
        </mxCell>
        <mxCell id="FEJOQUFaC0oeGkW2y8xq-32" style="edgeStyle=orthogonalEdgeStyle;rounded=0;orthogonalLoop=1;jettySize=auto;html=1;exitX=1;exitY=0.75;exitDx=0;exitDy=0;entryX=0;entryY=0.5;entryDx=0;entryDy=0;fontSize=18;" edge="1" parent="1" source="KcR6Oc8ULUUjkKVTyV3o-70" target="KcR6Oc8ULUUjkKVTyV3o-75">
          <mxGeometry relative="1" as="geometry" />
        </mxCell>
        <UserObject label="Departments" lucidchartObjectId="kD9RG~DW.CCm" id="KcR6Oc8ULUUjkKVTyV3o-70">
          <mxCell style="html=1;overflow=block;blockSpacing=1;whiteSpace=wrap;fontSize=16.7;fontColor=#333333;align=center;spacing=3.8;strokeColor=#5e5e5e;strokeOpacity=100;rounded=1;absoluteArcSize=1;arcSize=9;strokeWidth=2.3;" parent="1" vertex="1">
            <mxGeometry x="1395" y="527" width="120" height="90" as="geometry" />
          </mxCell>
        </UserObject>
        <mxCell id="FEJOQUFaC0oeGkW2y8xq-23" style="edgeStyle=orthogonalEdgeStyle;rounded=0;orthogonalLoop=1;jettySize=auto;html=1;entryX=0;entryY=0.75;entryDx=0;entryDy=0;fontSize=18;" edge="1" parent="1" source="KcR6Oc8ULUUjkKVTyV3o-71" target="KcR6Oc8ULUUjkKVTyV3o-70">
          <mxGeometry relative="1" as="geometry">
            <Array as="points" />
          </mxGeometry>
        </mxCell>
        <UserObject label="work in" lucidchartObjectId="pD9RKShQ2z.8" id="KcR6Oc8ULUUjkKVTyV3o-71">
          <mxCell style="html=1;overflow=block;blockSpacing=1;whiteSpace=wrap;shape=rhombus;fontSize=16.7;fontColor=#333333;align=center;spacing=3.8;strokeColor=#5e5e5e;strokeOpacity=100;rounded=1;absoluteArcSize=1;arcSize=9;strokeWidth=2.3;" parent="1" vertex="1">
            <mxGeometry x="1080" y="565" width="135" height="60" as="geometry" />
          </mxCell>
        </UserObject>
        <mxCell id="KcR6Oc8ULUUjkKVTyV3o-176" style="edgeStyle=orthogonalEdgeStyle;rounded=0;orthogonalLoop=1;jettySize=auto;html=1;exitX=1;exitY=0.25;exitDx=0;exitDy=0;entryX=0;entryY=0.5;entryDx=0;entryDy=0;" parent="1" source="KcR6Oc8ULUUjkKVTyV3o-74" target="KcR6Oc8ULUUjkKVTyV3o-89" edge="1">
          <mxGeometry relative="1" as="geometry">
            <Array as="points">
              <mxPoint x="1550" y="1043" />
              <mxPoint x="1550" y="953" />
            </Array>
          </mxGeometry>
        </mxCell>
        <mxCell id="KcR6Oc8ULUUjkKVTyV3o-180" style="edgeStyle=orthogonalEdgeStyle;rounded=0;orthogonalLoop=1;jettySize=auto;html=1;exitX=1;exitY=0.75;exitDx=0;exitDy=0;entryX=0;entryY=1;entryDx=0;entryDy=0;" parent="1" source="KcR6Oc8ULUUjkKVTyV3o-74" target="KcR6Oc8ULUUjkKVTyV3o-88" edge="1">
          <mxGeometry relative="1" as="geometry" />
        </mxCell>
        <mxCell id="KcR6Oc8ULUUjkKVTyV3o-182" style="edgeStyle=orthogonalEdgeStyle;rounded=0;orthogonalLoop=1;jettySize=auto;html=1;exitX=1;exitY=1;exitDx=0;exitDy=0;entryX=0;entryY=0.5;entryDx=0;entryDy=0;" parent="1" source="KcR6Oc8ULUUjkKVTyV3o-74" target="KcR6Oc8ULUUjkKVTyV3o-86" edge="1">
          <mxGeometry relative="1" as="geometry" />
        </mxCell>
        <mxCell id="KcR6Oc8ULUUjkKVTyV3o-185" style="edgeStyle=orthogonalEdgeStyle;rounded=0;orthogonalLoop=1;jettySize=auto;html=1;exitX=0.75;exitY=1;exitDx=0;exitDy=0;entryX=0;entryY=0.5;entryDx=0;entryDy=0;" parent="1" source="KcR6Oc8ULUUjkKVTyV3o-74" target="KcR6Oc8ULUUjkKVTyV3o-87" edge="1">
          <mxGeometry relative="1" as="geometry" />
        </mxCell>
        <UserObject label="Dept_Manager" lucidchartObjectId=".J9R_4g7XJTi" id="KcR6Oc8ULUUjkKVTyV3o-74">
          <mxCell style="html=1;overflow=block;blockSpacing=1;whiteSpace=wrap;fontSize=16.7;fontColor=#333333;align=center;spacing=3.8;strokeColor=#5e5e5e;strokeOpacity=100;rounded=1;absoluteArcSize=1;arcSize=9;strokeWidth=2.3;" parent="1" vertex="1">
            <mxGeometry x="1395" y="1020" width="120" height="90" as="geometry" />
          </mxCell>
        </UserObject>
        <mxCell id="FEJOQUFaC0oeGkW2y8xq-150" style="edgeStyle=none;rounded=0;orthogonalLoop=1;jettySize=auto;html=1;entryX=0;entryY=0.5;entryDx=0;entryDy=0;fontSize=18;" edge="1" parent="1" source="KcR6Oc8ULUUjkKVTyV3o-75" target="FEJOQUFaC0oeGkW2y8xq-131">
          <mxGeometry relative="1" as="geometry" />
        </mxCell>
        <UserObject label="dept_no" lucidchartObjectId="tK9R2TVEed0e" id="KcR6Oc8ULUUjkKVTyV3o-75">
          <mxCell style="html=1;overflow=block;blockSpacing=1;whiteSpace=wrap;ellipse;fontSize=16.7;fontColor=#333333;align=center;spacing=3.8;strokeColor=#5e5e5e;strokeOpacity=100;rounded=1;absoluteArcSize=1;arcSize=9;strokeWidth=2.3;" parent="1" vertex="1">
            <mxGeometry x="1695" y="598" width="120" height="45" as="geometry" />
          </mxCell>
        </UserObject>
        <mxCell id="FEJOQUFaC0oeGkW2y8xq-149" style="edgeStyle=none;rounded=0;orthogonalLoop=1;jettySize=auto;html=1;fontSize=18;" edge="1" parent="1" source="KcR6Oc8ULUUjkKVTyV3o-76" target="FEJOQUFaC0oeGkW2y8xq-132">
          <mxGeometry relative="1" as="geometry" />
        </mxCell>
        <UserObject label="Dept_name" lucidchartObjectId="TK9RW6eQ4vUa" id="KcR6Oc8ULUUjkKVTyV3o-76">
          <mxCell style="html=1;overflow=block;blockSpacing=1;whiteSpace=wrap;ellipse;fontSize=16.7;fontColor=#333333;align=center;spacing=3.8;strokeColor=#5e5e5e;strokeOpacity=100;rounded=1;absoluteArcSize=1;arcSize=9;strokeWidth=2.3;" parent="1" vertex="1">
            <mxGeometry x="1695" y="513" width="120" height="60" as="geometry" />
          </mxCell>
        </UserObject>
        <mxCell id="FEJOQUFaC0oeGkW2y8xq-113" style="edgeStyle=none;rounded=0;orthogonalLoop=1;jettySize=auto;html=1;fontSize=18;" edge="1" parent="1" source="KcR6Oc8ULUUjkKVTyV3o-77" target="FEJOQUFaC0oeGkW2y8xq-112">
          <mxGeometry relative="1" as="geometry" />
        </mxCell>
        <UserObject label="gender" lucidchartObjectId="8P9Rr2PMkIm8" id="KcR6Oc8ULUUjkKVTyV3o-77">
          <mxCell style="html=1;overflow=block;blockSpacing=1;whiteSpace=wrap;ellipse;fontSize=16.7;fontColor=#333333;align=center;spacing=3.8;strokeColor=#5e5e5e;strokeOpacity=100;rounded=1;absoluteArcSize=1;arcSize=9;strokeWidth=2.3;" parent="1" vertex="1">
            <mxGeometry x="492.5" y="445" width="120" height="45" as="geometry" />
          </mxCell>
        </UserObject>
        <mxCell id="FEJOQUFaC0oeGkW2y8xq-148" style="edgeStyle=none;rounded=0;orthogonalLoop=1;jettySize=auto;html=1;entryX=1;entryY=0.5;entryDx=0;entryDy=0;fontSize=18;" edge="1" parent="1" source="KcR6Oc8ULUUjkKVTyV3o-78" target="FEJOQUFaC0oeGkW2y8xq-135">
          <mxGeometry relative="1" as="geometry" />
        </mxCell>
        <UserObject label="birth_date" lucidchartObjectId="lQ9R~.p6iS9_" id="KcR6Oc8ULUUjkKVTyV3o-78">
          <mxCell style="html=1;overflow=block;blockSpacing=1;whiteSpace=wrap;ellipse;fontSize=16.7;fontColor=#333333;align=center;spacing=3.8;strokeColor=#5e5e5e;strokeOpacity=100;rounded=1;absoluteArcSize=1;arcSize=9;strokeWidth=2.3;" parent="1" vertex="1">
            <mxGeometry x="350" y="467" width="120" height="46" as="geometry" />
          </mxCell>
        </UserObject>
        <mxCell id="FEJOQUFaC0oeGkW2y8xq-115" style="edgeStyle=none;rounded=0;orthogonalLoop=1;jettySize=auto;html=1;fontSize=18;" edge="1" parent="1" source="KcR6Oc8ULUUjkKVTyV3o-79" target="FEJOQUFaC0oeGkW2y8xq-67">
          <mxGeometry relative="1" as="geometry" />
        </mxCell>
        <UserObject label="first_name" lucidchartObjectId="CQ9RGuEqZjhO" id="KcR6Oc8ULUUjkKVTyV3o-79">
          <mxCell style="html=1;overflow=block;blockSpacing=1;whiteSpace=wrap;ellipse;fontSize=16.7;fontColor=#333333;align=center;spacing=3.8;strokeColor=#5e5e5e;strokeOpacity=100;rounded=1;absoluteArcSize=1;arcSize=9;strokeWidth=2.3;" parent="1" vertex="1">
            <mxGeometry x="260" y="527" width="120" height="46" as="geometry" />
          </mxCell>
        </UserObject>
        <mxCell id="FEJOQUFaC0oeGkW2y8xq-66" style="edgeStyle=none;rounded=0;orthogonalLoop=1;jettySize=auto;html=1;exitX=0;exitY=0.5;exitDx=0;exitDy=0;fontSize=18;" edge="1" parent="1" source="KcR6Oc8ULUUjkKVTyV3o-80" target="FEJOQUFaC0oeGkW2y8xq-65">
          <mxGeometry relative="1" as="geometry" />
        </mxCell>
        <UserObject label="&lt;div style=&quot;display: flex; justify-content: center; text-align: center; align-items: baseline; font-size: 0; line-height: 1.25;margin-top: -2px;&quot;&gt;&lt;span&gt;&lt;span style=&quot;font-size:16.7px;color:#333333;&quot;&gt;last_name&lt;/span&gt;&lt;span style=&quot;font-size:16px;color:#000000;&quot;&gt;  &lt;/span&gt;&lt;/span&gt;&lt;/div&gt;" lucidchartObjectId="SQ9RVI8qVVdR" id="KcR6Oc8ULUUjkKVTyV3o-80">
          <mxCell style="html=1;overflow=block;blockSpacing=1;whiteSpace=wrap;ellipse;fontSize=13;spacing=3.8;strokeColor=#5e5e5e;strokeOpacity=100;rounded=1;absoluteArcSize=1;arcSize=9;strokeWidth=2.3;" parent="1" vertex="1">
            <mxGeometry x="260" y="607" width="120" height="46" as="geometry" />
          </mxCell>
        </UserObject>
        <mxCell id="FEJOQUFaC0oeGkW2y8xq-151" style="edgeStyle=none;rounded=0;orthogonalLoop=1;jettySize=auto;html=1;entryX=1;entryY=0.5;entryDx=0;entryDy=0;fontSize=18;" edge="1" parent="1" source="KcR6Oc8ULUUjkKVTyV3o-81" target="FEJOQUFaC0oeGkW2y8xq-70">
          <mxGeometry relative="1" as="geometry" />
        </mxCell>
        <UserObject label="hire_date" lucidchartObjectId="fR9Rlt8UUerg" id="KcR6Oc8ULUUjkKVTyV3o-81">
          <mxCell style="html=1;overflow=block;blockSpacing=1;whiteSpace=wrap;ellipse;fontSize=16.7;fontColor=#333333;align=center;spacing=3.8;strokeColor=#5e5e5e;strokeOpacity=100;rounded=1;absoluteArcSize=1;arcSize=9;strokeWidth=2.3;" parent="1" vertex="1">
            <mxGeometry x="200" y="681" width="120" height="46" as="geometry" />
          </mxCell>
        </UserObject>
        <mxCell id="FEJOQUFaC0oeGkW2y8xq-69" style="edgeStyle=none;rounded=0;orthogonalLoop=1;jettySize=auto;html=1;fontSize=18;" edge="1" parent="1" source="KcR6Oc8ULUUjkKVTyV3o-82" target="FEJOQUFaC0oeGkW2y8xq-68">
          <mxGeometry relative="1" as="geometry" />
        </mxCell>
        <UserObject label="emp_no" lucidchartObjectId="FR9R~3oERHCW" id="KcR6Oc8ULUUjkKVTyV3o-82">
          <mxCell style="html=1;overflow=block;blockSpacing=1;whiteSpace=wrap;ellipse;fontSize=16.7;fontColor=#333333;align=center;spacing=3.8;strokeColor=#5e5e5e;strokeOpacity=100;rounded=1;absoluteArcSize=1;arcSize=9;strokeWidth=2.3;" parent="1" vertex="1">
            <mxGeometry x="460" y="715" width="120" height="45" as="geometry" />
          </mxCell>
        </UserObject>
        <mxCell id="FEJOQUFaC0oeGkW2y8xq-56" value="" style="rounded=0;orthogonalLoop=1;jettySize=auto;html=1;fontSize=14;" edge="1" parent="1" source="KcR6Oc8ULUUjkKVTyV3o-83" target="FEJOQUFaC0oeGkW2y8xq-16">
          <mxGeometry relative="1" as="geometry" />
        </mxCell>
        <mxCell id="FEJOQUFaC0oeGkW2y8xq-122" style="edgeStyle=none;rounded=0;orthogonalLoop=1;jettySize=auto;html=1;entryX=0;entryY=1;entryDx=0;entryDy=0;fontSize=18;" edge="1" parent="1" source="KcR6Oc8ULUUjkKVTyV3o-83" target="KcR6Oc8ULUUjkKVTyV3o-85">
          <mxGeometry relative="1" as="geometry" />
        </mxCell>
        <mxCell id="FEJOQUFaC0oeGkW2y8xq-123" style="edgeStyle=none;rounded=0;orthogonalLoop=1;jettySize=auto;html=1;entryX=0;entryY=0.5;entryDx=0;entryDy=0;fontSize=18;" edge="1" parent="1" source="KcR6Oc8ULUUjkKVTyV3o-83" target="KcR6Oc8ULUUjkKVTyV3o-84">
          <mxGeometry relative="1" as="geometry" />
        </mxCell>
        <mxCell id="FEJOQUFaC0oeGkW2y8xq-124" style="edgeStyle=none;rounded=0;orthogonalLoop=1;jettySize=auto;html=1;entryX=0;entryY=0.5;entryDx=0;entryDy=0;fontSize=18;" edge="1" parent="1" source="KcR6Oc8ULUUjkKVTyV3o-83" target="KcR6Oc8ULUUjkKVTyV3o-91">
          <mxGeometry relative="1" as="geometry" />
        </mxCell>
        <mxCell id="FEJOQUFaC0oeGkW2y8xq-125" style="edgeStyle=none;rounded=0;orthogonalLoop=1;jettySize=auto;html=1;entryX=0;entryY=0.5;entryDx=0;entryDy=0;fontSize=18;" edge="1" parent="1" source="KcR6Oc8ULUUjkKVTyV3o-83" target="KcR6Oc8ULUUjkKVTyV3o-90">
          <mxGeometry relative="1" as="geometry" />
        </mxCell>
        <UserObject label="Dept_emp" lucidchartObjectId="9U9Rp4n7m0in" id="KcR6Oc8ULUUjkKVTyV3o-83">
          <mxCell style="html=1;overflow=block;blockSpacing=1;whiteSpace=wrap;fontSize=16.7;fontColor=#333333;align=center;spacing=3.8;strokeColor=#5e5e5e;strokeOpacity=100;rounded=1;absoluteArcSize=1;arcSize=0;strokeWidth=2.3;" parent="1" vertex="1">
            <mxGeometry x="1395" y="185" width="120" height="90" as="geometry" />
          </mxCell>
        </UserObject>
        <mxCell id="FEJOQUFaC0oeGkW2y8xq-129" style="edgeStyle=none;rounded=0;orthogonalLoop=1;jettySize=auto;html=1;fontSize=18;" edge="1" parent="1" source="KcR6Oc8ULUUjkKVTyV3o-84" target="FEJOQUFaC0oeGkW2y8xq-116">
          <mxGeometry relative="1" as="geometry" />
        </mxCell>
        <UserObject label="from_date" lucidchartObjectId="~Y9Ra.M3.pO~" id="KcR6Oc8ULUUjkKVTyV3o-84">
          <mxCell style="html=1;overflow=block;blockSpacing=1;whiteSpace=wrap;ellipse;fontSize=16.7;fontColor=#333333;align=center;spacing=3.8;strokeColor=#5e5e5e;strokeOpacity=100;rounded=1;absoluteArcSize=1;arcSize=9;strokeWidth=2.3;" parent="1" vertex="1">
            <mxGeometry x="1597.5" y="161" width="120" height="56" as="geometry" />
          </mxCell>
        </UserObject>
        <mxCell id="FEJOQUFaC0oeGkW2y8xq-130" style="edgeStyle=none;rounded=0;orthogonalLoop=1;jettySize=auto;html=1;entryX=0;entryY=0.5;entryDx=0;entryDy=0;fontSize=18;" edge="1" parent="1" source="KcR6Oc8ULUUjkKVTyV3o-85" target="FEJOQUFaC0oeGkW2y8xq-101">
          <mxGeometry relative="1" as="geometry" />
        </mxCell>
        <UserObject label="to_date" lucidchartObjectId="8Z9RhYsD0ph8" id="KcR6Oc8ULUUjkKVTyV3o-85">
          <mxCell style="html=1;overflow=block;blockSpacing=1;whiteSpace=wrap;ellipse;fontSize=16.7;fontColor=#333333;align=center;spacing=3.8;strokeColor=#5e5e5e;strokeOpacity=100;rounded=1;absoluteArcSize=1;arcSize=9;strokeWidth=2.3;" parent="1" vertex="1">
            <mxGeometry x="1600" y="240" width="120" height="54" as="geometry" />
          </mxCell>
        </UserObject>
        <mxCell id="FEJOQUFaC0oeGkW2y8xq-80" value="" style="edgeStyle=none;rounded=0;orthogonalLoop=1;jettySize=auto;html=1;fontSize=18;" edge="1" parent="1" source="KcR6Oc8ULUUjkKVTyV3o-86" target="FEJOQUFaC0oeGkW2y8xq-74">
          <mxGeometry relative="1" as="geometry" />
        </mxCell>
        <UserObject label="from_date" lucidchartObjectId="b29RTk9Mnwc3" id="KcR6Oc8ULUUjkKVTyV3o-86">
          <mxCell style="html=1;overflow=block;blockSpacing=1;whiteSpace=wrap;ellipse;fontSize=16.7;fontColor=#333333;align=center;spacing=3.8;strokeColor=#5e5e5e;strokeOpacity=100;rounded=1;absoluteArcSize=1;arcSize=9;strokeWidth=2.3;" parent="1" vertex="1">
            <mxGeometry x="1635" y="1080" width="120" height="45" as="geometry" />
          </mxCell>
        </UserObject>
        <mxCell id="FEJOQUFaC0oeGkW2y8xq-81" value="" style="edgeStyle=none;rounded=0;orthogonalLoop=1;jettySize=auto;html=1;fontSize=18;" edge="1" parent="1" source="KcR6Oc8ULUUjkKVTyV3o-87" target="FEJOQUFaC0oeGkW2y8xq-75">
          <mxGeometry relative="1" as="geometry" />
        </mxCell>
        <UserObject label="to_date" lucidchartObjectId="149RedD5ZlJK" id="KcR6Oc8ULUUjkKVTyV3o-87">
          <mxCell style="html=1;overflow=block;blockSpacing=1;whiteSpace=wrap;ellipse;fontSize=16.7;fontColor=#333333;align=center;spacing=3.8;strokeColor=#5e5e5e;strokeOpacity=100;rounded=1;absoluteArcSize=1;arcSize=9;strokeWidth=2.3;" parent="1" vertex="1">
            <mxGeometry x="1635" y="1161" width="120" height="46" as="geometry" />
          </mxCell>
        </UserObject>
        <mxCell id="FEJOQUFaC0oeGkW2y8xq-79" value="" style="edgeStyle=none;rounded=0;orthogonalLoop=1;jettySize=auto;html=1;fontSize=18;" edge="1" parent="1" source="KcR6Oc8ULUUjkKVTyV3o-88" target="FEJOQUFaC0oeGkW2y8xq-73">
          <mxGeometry relative="1" as="geometry" />
        </mxCell>
        <UserObject label="emp_no" lucidchartObjectId="d59R7Pp8uAvP" id="KcR6Oc8ULUUjkKVTyV3o-88">
          <mxCell style="html=1;overflow=block;blockSpacing=1;whiteSpace=wrap;ellipse;fontSize=16.7;fontColor=#333333;align=center;spacing=3.8;strokeColor=#5e5e5e;strokeOpacity=100;rounded=1;absoluteArcSize=1;arcSize=9;strokeWidth=2.3;" parent="1" vertex="1">
            <mxGeometry x="1635" y="1006" width="120" height="45" as="geometry" />
          </mxCell>
        </UserObject>
        <mxCell id="FEJOQUFaC0oeGkW2y8xq-78" value="" style="edgeStyle=none;rounded=0;orthogonalLoop=1;jettySize=auto;html=1;fontSize=18;" edge="1" parent="1" source="KcR6Oc8ULUUjkKVTyV3o-89" target="FEJOQUFaC0oeGkW2y8xq-72">
          <mxGeometry relative="1" as="geometry" />
        </mxCell>
        <UserObject label="dept_no" lucidchartObjectId="D59Rg4aX3Pp4" id="KcR6Oc8ULUUjkKVTyV3o-89">
          <mxCell style="html=1;overflow=block;blockSpacing=1;whiteSpace=wrap;ellipse;fontSize=16.7;fontColor=#333333;align=center;spacing=3.8;strokeColor=#5e5e5e;strokeOpacity=100;rounded=1;absoluteArcSize=1;arcSize=9;strokeWidth=2.3;" parent="1" vertex="1">
            <mxGeometry x="1635" y="930" width="120" height="45" as="geometry" />
          </mxCell>
        </UserObject>
        <mxCell id="FEJOQUFaC0oeGkW2y8xq-128" style="edgeStyle=none;rounded=0;orthogonalLoop=1;jettySize=auto;html=1;entryX=0;entryY=0.5;entryDx=0;entryDy=0;fontSize=18;" edge="1" parent="1" source="KcR6Oc8ULUUjkKVTyV3o-90" target="FEJOQUFaC0oeGkW2y8xq-99">
          <mxGeometry relative="1" as="geometry" />
        </mxCell>
        <UserObject label="emp_no" lucidchartObjectId="U59RZL8NjSFG" id="KcR6Oc8ULUUjkKVTyV3o-90">
          <mxCell style="html=1;overflow=block;blockSpacing=1;whiteSpace=wrap;ellipse;fontSize=16.7;fontColor=#333333;align=center;spacing=3.8;strokeColor=#5e5e5e;strokeOpacity=100;rounded=1;absoluteArcSize=1;arcSize=9;strokeWidth=2.3;" parent="1" vertex="1">
            <mxGeometry x="1600" y="84" width="125" height="50" as="geometry" />
          </mxCell>
        </UserObject>
        <mxCell id="FEJOQUFaC0oeGkW2y8xq-126" style="edgeStyle=none;rounded=0;orthogonalLoop=1;jettySize=auto;html=1;entryX=0;entryY=0.5;entryDx=0;entryDy=0;fontSize=18;" edge="1" parent="1" source="KcR6Oc8ULUUjkKVTyV3o-91" target="FEJOQUFaC0oeGkW2y8xq-100">
          <mxGeometry relative="1" as="geometry" />
        </mxCell>
        <UserObject label="dept_no" lucidchartObjectId="b69RqE9rsH8G" id="KcR6Oc8ULUUjkKVTyV3o-91">
          <mxCell style="html=1;overflow=block;blockSpacing=1;whiteSpace=wrap;ellipse;fontSize=16.7;fontColor=#333333;align=center;spacing=3.8;strokeColor=#5e5e5e;strokeOpacity=100;rounded=1;absoluteArcSize=1;arcSize=9;strokeWidth=2.3;" parent="1" vertex="1">
            <mxGeometry x="1597.5" y="18.5" width="120" height="45" as="geometry" />
          </mxCell>
        </UserObject>
        <mxCell id="FEJOQUFaC0oeGkW2y8xq-28" style="edgeStyle=orthogonalEdgeStyle;rounded=0;orthogonalLoop=1;jettySize=auto;html=1;fontSize=18;" edge="1" parent="1" source="KcR6Oc8ULUUjkKVTyV3o-92" target="KcR6Oc8ULUUjkKVTyV3o-74">
          <mxGeometry relative="1" as="geometry" />
        </mxCell>
        <UserObject label="are managed by" lucidchartObjectId="s79R_xznaIiu" id="KcR6Oc8ULUUjkKVTyV3o-92">
          <mxCell style="html=1;overflow=block;blockSpacing=1;whiteSpace=wrap;shape=rhombus;fontSize=16.7;fontColor=#333333;align=center;spacing=3.8;strokeColor=#5e5e5e;strokeOpacity=100;rounded=1;absoluteArcSize=1;arcSize=9;strokeWidth=2.3;" parent="1" vertex="1">
            <mxGeometry x="1395" y="760" width="120" height="104" as="geometry" />
          </mxCell>
        </UserObject>
        <UserObject label="" lucidchartObjectId="C79RkWU5yFMc" id="KcR6Oc8ULUUjkKVTyV3o-93">
          <mxCell style="html=1;jettySize=18;whiteSpace=wrap;fontSize=13;strokeColor=#5E5E5E;strokeWidth=1.5;rounded=1;arcSize=12;edgeStyle=orthogonalEdgeStyle;startArrow=none;endArrow=block;endFill=1;exitX=0.5;exitY=1.012;exitPerimeter=0;entryX=0.5;entryY=0.005;entryPerimeter=0;" parent="1" source="KcR6Oc8ULUUjkKVTyV3o-70" target="KcR6Oc8ULUUjkKVTyV3o-92" edge="1">
            <mxGeometry width="100" height="100" relative="1" as="geometry">
              <Array as="points" />
            </mxGeometry>
          </mxCell>
        </UserObject>
        <UserObject label="salary" lucidchartObjectId="u99RQj9DWF7g" id="KcR6Oc8ULUUjkKVTyV3o-101">
          <mxCell style="html=1;overflow=block;blockSpacing=1;whiteSpace=wrap;fontSize=16.7;fontColor=#333333;align=center;spacing=3.8;strokeColor=#5e5e5e;strokeOpacity=100;rounded=1;absoluteArcSize=1;arcSize=9;strokeWidth=2.3;" parent="1" vertex="1">
            <mxGeometry x="485" y="990" width="135" height="90" as="geometry" />
          </mxCell>
        </UserObject>
        <UserObject label="need a" lucidchartObjectId="-99ROzWdCF~4" id="KcR6Oc8ULUUjkKVTyV3o-102">
          <mxCell style="html=1;overflow=block;blockSpacing=1;whiteSpace=wrap;shape=rhombus;fontSize=16.7;fontColor=#333333;align=center;spacing=3.8;strokeColor=#5e5e5e;strokeOpacity=100;rounded=1;absoluteArcSize=1;arcSize=9;strokeWidth=2.3;" parent="1" vertex="1">
            <mxGeometry x="720" y="804" width="120" height="68" as="geometry" />
          </mxCell>
        </UserObject>
        <mxCell id="FEJOQUFaC0oeGkW2y8xq-83" value="" style="edgeStyle=none;rounded=0;orthogonalLoop=1;jettySize=auto;html=1;fontSize=18;" edge="1" parent="1" source="KcR6Oc8ULUUjkKVTyV3o-105">
          <mxGeometry relative="1" as="geometry">
            <mxPoint x="545" y="1240" as="targetPoint" />
          </mxGeometry>
        </mxCell>
        <UserObject label="emp_no" lucidchartObjectId="e_9R..aQ1MnT" id="KcR6Oc8ULUUjkKVTyV3o-105">
          <mxCell style="html=1;overflow=block;blockSpacing=1;whiteSpace=wrap;ellipse;fontSize=16.7;fontColor=#333333;align=center;spacing=3.8;strokeColor=#5e5e5e;strokeOpacity=100;rounded=1;absoluteArcSize=1;arcSize=9;strokeWidth=2.3;" parent="1" vertex="1">
            <mxGeometry x="485" y="1129" width="120" height="53" as="geometry" />
          </mxCell>
        </UserObject>
        <mxCell id="FEJOQUFaC0oeGkW2y8xq-87" value="" style="edgeStyle=none;rounded=0;orthogonalLoop=1;jettySize=auto;html=1;fontSize=18;" edge="1" parent="1" source="KcR6Oc8ULUUjkKVTyV3o-106" target="FEJOQUFaC0oeGkW2y8xq-85">
          <mxGeometry relative="1" as="geometry" />
        </mxCell>
        <UserObject label="amount" lucidchartObjectId="m_9RS~U_vKWg" id="KcR6Oc8ULUUjkKVTyV3o-106">
          <mxCell style="html=1;overflow=block;blockSpacing=1;whiteSpace=wrap;ellipse;fontSize=16.7;fontColor=#333333;align=center;spacing=3.8;strokeColor=#5e5e5e;strokeOpacity=100;rounded=1;absoluteArcSize=1;arcSize=9;strokeWidth=2.3;" parent="1" vertex="1">
            <mxGeometry x="740" y="1001" width="120" height="53" as="geometry" />
          </mxCell>
        </UserObject>
        <mxCell id="FEJOQUFaC0oeGkW2y8xq-90" style="edgeStyle=none;rounded=0;orthogonalLoop=1;jettySize=auto;html=1;entryX=0;entryY=0.5;entryDx=0;entryDy=0;fontSize=18;" edge="1" parent="1" source="KcR6Oc8ULUUjkKVTyV3o-107" target="FEJOQUFaC0oeGkW2y8xq-89">
          <mxGeometry relative="1" as="geometry" />
        </mxCell>
        <UserObject label="to_date" lucidchartObjectId="v_9Rlf-NGaM1" id="KcR6Oc8ULUUjkKVTyV3o-107">
          <mxCell style="html=1;overflow=block;blockSpacing=1;whiteSpace=wrap;ellipse;fontSize=16.7;fontColor=#333333;align=center;spacing=3.8;strokeColor=#5e5e5e;strokeOpacity=100;rounded=1;absoluteArcSize=1;arcSize=9;strokeWidth=2.3;" parent="1" vertex="1">
            <mxGeometry x="620" y="1129" width="120" height="53" as="geometry" />
          </mxCell>
        </UserObject>
        <mxCell id="FEJOQUFaC0oeGkW2y8xq-88" value="" style="edgeStyle=none;rounded=0;orthogonalLoop=1;jettySize=auto;html=1;fontSize=18;" edge="1" parent="1" source="KcR6Oc8ULUUjkKVTyV3o-108" target="FEJOQUFaC0oeGkW2y8xq-86">
          <mxGeometry relative="1" as="geometry" />
        </mxCell>
        <UserObject label="from_date" lucidchartObjectId="y_9Rtxu3DeZi" id="KcR6Oc8ULUUjkKVTyV3o-108">
          <mxCell style="html=1;overflow=block;blockSpacing=1;whiteSpace=wrap;ellipse;fontSize=16.7;fontColor=#333333;align=center;spacing=3.8;strokeColor=#5e5e5e;strokeOpacity=100;rounded=1;absoluteArcSize=1;arcSize=9;strokeWidth=2.3;" parent="1" vertex="1">
            <mxGeometry x="725" y="1069" width="120" height="53" as="geometry" />
          </mxCell>
        </UserObject>
        <UserObject label="" lucidchartObjectId="z.9RhweRpn8w" id="KcR6Oc8ULUUjkKVTyV3o-109">
          <mxCell style="html=1;jettySize=18;whiteSpace=wrap;fontSize=13;strokeColor=#5E5E5E;strokeWidth=1.5;rounded=1;arcSize=12;edgeStyle=orthogonalEdgeStyle;startArrow=none;endArrow=block;endFill=1;exitX=1.008;exitY=0.5;exitPerimeter=0;entryX=-0.006;entryY=0.563;entryPerimeter=0;" parent="1" source="KcR6Oc8ULUUjkKVTyV3o-101" target="KcR6Oc8ULUUjkKVTyV3o-106" edge="1">
            <mxGeometry width="100" height="100" relative="1" as="geometry">
              <Array as="points" />
            </mxGeometry>
          </mxCell>
        </UserObject>
        <UserObject label="" lucidchartObjectId="B.9R2ahHxNtP" id="KcR6Oc8ULUUjkKVTyV3o-110">
          <mxCell style="html=1;jettySize=18;whiteSpace=wrap;fontSize=13;strokeColor=#5E5E5E;strokeWidth=1.5;rounded=1;arcSize=12;edgeStyle=orthogonalEdgeStyle;startArrow=none;endArrow=block;endFill=1;exitX=1.008;exitY=0.763;exitPerimeter=0;entryX=0.003;entryY=0.383;entryPerimeter=0;" parent="1" source="KcR6Oc8ULUUjkKVTyV3o-101" target="KcR6Oc8ULUUjkKVTyV3o-108" edge="1">
            <mxGeometry width="100" height="100" relative="1" as="geometry">
              <Array as="points" />
            </mxGeometry>
          </mxCell>
        </UserObject>
        <UserObject label="" lucidchartObjectId="D.9RrfljiITh" id="KcR6Oc8ULUUjkKVTyV3o-111">
          <mxCell style="html=1;jettySize=18;whiteSpace=wrap;fontSize=13;strokeColor=#5E5E5E;strokeWidth=1.5;rounded=1;arcSize=12;edgeStyle=orthogonalEdgeStyle;startArrow=none;endArrow=block;endFill=1;exitX=0.956;exitY=1.012;exitPerimeter=0;entryX=0.575;entryY=-0.016;entryPerimeter=0;" parent="1" source="KcR6Oc8ULUUjkKVTyV3o-101" target="KcR6Oc8ULUUjkKVTyV3o-107" edge="1">
            <mxGeometry width="100" height="100" relative="1" as="geometry">
              <Array as="points" />
            </mxGeometry>
          </mxCell>
        </UserObject>
        <mxCell id="FEJOQUFaC0oeGkW2y8xq-48" style="edgeStyle=orthogonalEdgeStyle;rounded=0;orthogonalLoop=1;jettySize=auto;html=1;entryX=0;entryY=0.5;entryDx=0;entryDy=0;fontSize=18;" edge="1" parent="1" source="KcR6Oc8ULUUjkKVTyV3o-119" target="KcR6Oc8ULUUjkKVTyV3o-124">
          <mxGeometry relative="1" as="geometry">
            <Array as="points">
              <mxPoint x="680" y="140" />
              <mxPoint x="680" y="220" />
            </Array>
          </mxGeometry>
        </mxCell>
        <mxCell id="FEJOQUFaC0oeGkW2y8xq-50" style="edgeStyle=orthogonalEdgeStyle;rounded=0;orthogonalLoop=1;jettySize=auto;html=1;entryX=0;entryY=0.5;entryDx=0;entryDy=0;fontSize=18;" edge="1" parent="1" source="KcR6Oc8ULUUjkKVTyV3o-119" target="KcR6Oc8ULUUjkKVTyV3o-123">
          <mxGeometry relative="1" as="geometry" />
        </mxCell>
        <UserObject label="title" lucidchartObjectId="Nb-RhhHM5t3E" id="KcR6Oc8ULUUjkKVTyV3o-119">
          <mxCell style="html=1;overflow=block;blockSpacing=1;whiteSpace=wrap;fontSize=16.7;fontColor=#333333;align=center;spacing=3.8;strokeColor=#5e5e5e;strokeOpacity=100;rounded=1;absoluteArcSize=1;arcSize=9;strokeWidth=2.3;" parent="1" vertex="1">
            <mxGeometry x="485" y="71" width="135" height="90" as="geometry" />
          </mxCell>
        </UserObject>
        <mxCell id="FEJOQUFaC0oeGkW2y8xq-142" value="" style="edgeStyle=none;rounded=0;orthogonalLoop=1;jettySize=auto;html=1;fontSize=18;entryX=0;entryY=0.5;entryDx=0;entryDy=0;" edge="1" parent="1" source="KcR6Oc8ULUUjkKVTyV3o-120" target="FEJOQUFaC0oeGkW2y8xq-98">
          <mxGeometry relative="1" as="geometry" />
        </mxCell>
        <UserObject label="emp_no" lucidchartObjectId="se-RFE4b1g1M" id="KcR6Oc8ULUUjkKVTyV3o-120">
          <mxCell style="html=1;overflow=block;blockSpacing=1;whiteSpace=wrap;ellipse;fontSize=16.7;fontColor=#333333;align=center;spacing=3.8;strokeColor=#5e5e5e;strokeOpacity=100;rounded=1;absoluteArcSize=1;arcSize=9;strokeWidth=2.3;" parent="1" vertex="1">
            <mxGeometry x="760" y="30" width="120" height="41" as="geometry" />
          </mxCell>
        </UserObject>
        <mxCell id="FEJOQUFaC0oeGkW2y8xq-144" value="" style="edgeStyle=none;rounded=0;orthogonalLoop=1;jettySize=auto;html=1;fontSize=18;" edge="1" parent="1" source="KcR6Oc8ULUUjkKVTyV3o-121" target="FEJOQUFaC0oeGkW2y8xq-134">
          <mxGeometry relative="1" as="geometry" />
        </mxCell>
        <UserObject label="title" lucidchartObjectId="ze-RI~kXz5-9" id="KcR6Oc8ULUUjkKVTyV3o-121">
          <mxCell style="html=1;overflow=block;blockSpacing=1;whiteSpace=wrap;ellipse;fontSize=16.7;fontColor=#333333;align=center;spacing=3.8;strokeColor=#5e5e5e;strokeOpacity=100;rounded=1;absoluteArcSize=1;arcSize=9;strokeWidth=2.3;" parent="1" vertex="1">
            <mxGeometry x="760" y="84" width="120" height="41" as="geometry" />
          </mxCell>
        </UserObject>
        <UserObject label="" lucidchartObjectId="~e-Rg.IHXh5W" id="KcR6Oc8ULUUjkKVTyV3o-122">
          <mxCell style="html=1;jettySize=18;whiteSpace=wrap;fontSize=13;strokeColor=#5E5E5E;strokeWidth=1.5;rounded=1;arcSize=12;edgeStyle=orthogonalEdgeStyle;startArrow=none;endArrow=block;endFill=1;exitX=0.7;exitY=1.012;exitPerimeter=0;entryX=0.789;entryY=0.07;entryPerimeter=0;" parent="1" source="KcR6Oc8ULUUjkKVTyV3o-101" target="KcR6Oc8ULUUjkKVTyV3o-105" edge="1">
            <mxGeometry width="100" height="100" relative="1" as="geometry">
              <Array as="points" />
            </mxGeometry>
          </mxCell>
        </UserObject>
        <mxCell id="FEJOQUFaC0oeGkW2y8xq-145" style="edgeStyle=none;rounded=0;orthogonalLoop=1;jettySize=auto;html=1;fontSize=18;" edge="1" parent="1" source="KcR6Oc8ULUUjkKVTyV3o-123" target="FEJOQUFaC0oeGkW2y8xq-102">
          <mxGeometry relative="1" as="geometry" />
        </mxCell>
        <UserObject label="from_date" lucidchartObjectId="Yh-Ra2lJoGX_" id="KcR6Oc8ULUUjkKVTyV3o-123">
          <mxCell style="html=1;overflow=block;blockSpacing=1;whiteSpace=wrap;ellipse;fontSize=16.7;fontColor=#333333;align=center;spacing=3.8;strokeColor=#5e5e5e;strokeOpacity=100;rounded=1;absoluteArcSize=1;arcSize=9;strokeWidth=2.3;" parent="1" vertex="1">
            <mxGeometry x="760" y="144" width="120" height="41" as="geometry" />
          </mxCell>
        </UserObject>
        <mxCell id="FEJOQUFaC0oeGkW2y8xq-146" style="edgeStyle=none;rounded=0;orthogonalLoop=1;jettySize=auto;html=1;entryX=0;entryY=0.5;entryDx=0;entryDy=0;fontSize=18;" edge="1" parent="1" source="KcR6Oc8ULUUjkKVTyV3o-124" target="FEJOQUFaC0oeGkW2y8xq-137">
          <mxGeometry relative="1" as="geometry" />
        </mxCell>
        <UserObject label="to_date" lucidchartObjectId="-h-Rqpt6DNNr" id="KcR6Oc8ULUUjkKVTyV3o-124">
          <mxCell style="html=1;overflow=block;blockSpacing=1;whiteSpace=wrap;ellipse;fontSize=16.7;fontColor=#333333;align=center;spacing=3.8;strokeColor=#5e5e5e;strokeOpacity=100;rounded=1;absoluteArcSize=1;arcSize=9;strokeWidth=2.3;" parent="1" vertex="1">
            <mxGeometry x="760" y="199" width="120" height="41" as="geometry" />
          </mxCell>
        </UserObject>
        <UserObject label="" lucidchartObjectId="Si-R5-0Ub5Gb" id="KcR6Oc8ULUUjkKVTyV3o-125">
          <mxCell style="html=1;jettySize=18;whiteSpace=wrap;fontSize=13;strokeColor=#5E5E5E;strokeWidth=1.5;rounded=1;arcSize=12;edgeStyle=orthogonalEdgeStyle;startArrow=none;endArrow=block;endFill=1;exitX=1.008;exitY=0.5;exitPerimeter=0;entryX=0.04;entryY=0.73;entryPerimeter=0;" parent="1" source="KcR6Oc8ULUUjkKVTyV3o-119" target="KcR6Oc8ULUUjkKVTyV3o-120" edge="1">
            <mxGeometry width="100" height="100" relative="1" as="geometry">
              <Array as="points">
                <mxPoint x="621" y="90" />
                <mxPoint x="690" y="90" />
                <mxPoint x="690" y="60" />
              </Array>
            </mxGeometry>
          </mxCell>
        </UserObject>
        <UserObject label="" lucidchartObjectId="Vi-RmRN9pK9p" id="KcR6Oc8ULUUjkKVTyV3o-126">
          <mxCell style="html=1;jettySize=18;whiteSpace=wrap;fontSize=13;strokeColor=#5E5E5E;strokeWidth=1.5;rounded=1;arcSize=12;edgeStyle=orthogonalEdgeStyle;startArrow=none;endArrow=block;endFill=1;exitX=1.008;exitY=0.765;exitPerimeter=0;entryX=-0.009;entryY=0.5;entryPerimeter=0;" parent="1" source="KcR6Oc8ULUUjkKVTyV3o-119" target="KcR6Oc8ULUUjkKVTyV3o-121" edge="1">
            <mxGeometry width="100" height="100" relative="1" as="geometry">
              <Array as="points">
                <mxPoint x="621" y="105" />
              </Array>
            </mxGeometry>
          </mxCell>
        </UserObject>
        <mxCell id="KcR6Oc8ULUUjkKVTyV3o-142" value="&lt;font style=&quot;font-size: 18px;&quot;&gt;have a&amp;nbsp;&lt;/font&gt;" style="rhombus;whiteSpace=wrap;html=1;" parent="1" vertex="1">
          <mxGeometry x="710" y="320" width="130" height="70" as="geometry" />
        </mxCell>
        <mxCell id="KcR6Oc8ULUUjkKVTyV3o-145" value="" style="endArrow=classic;html=1;rounded=0;" parent="1" edge="1">
          <mxGeometry width="50" height="50" relative="1" as="geometry">
            <mxPoint x="1525" y="1080" as="sourcePoint" />
            <mxPoint x="1575" y="1030" as="targetPoint" />
          </mxGeometry>
        </mxCell>
        <mxCell id="KcR6Oc8ULUUjkKVTyV3o-147" value="" style="endArrow=classic;html=1;rounded=0;" parent="1" edge="1">
          <mxGeometry width="50" height="50" relative="1" as="geometry">
            <mxPoint x="1525" y="1080" as="sourcePoint" />
            <mxPoint x="1575" y="1030" as="targetPoint" />
          </mxGeometry>
        </mxCell>
        <mxCell id="KcR6Oc8ULUUjkKVTyV3o-148" value="" style="endArrow=classic;startArrow=classic;html=1;rounded=0;" parent="1" edge="1">
          <mxGeometry width="50" height="50" relative="1" as="geometry">
            <mxPoint x="1525" y="1080" as="sourcePoint" />
            <mxPoint x="1575" y="1030" as="targetPoint" />
          </mxGeometry>
        </mxCell>
        <mxCell id="KcR6Oc8ULUUjkKVTyV3o-151" value="" style="endArrow=classic;html=1;rounded=0;" parent="1" edge="1">
          <mxGeometry width="50" height="50" relative="1" as="geometry">
            <mxPoint x="1525" y="1080" as="sourcePoint" />
            <mxPoint x="1575" y="1030" as="targetPoint" />
          </mxGeometry>
        </mxCell>
        <mxCell id="KcR6Oc8ULUUjkKVTyV3o-153" value="" style="endArrow=classic;html=1;rounded=0;" parent="1" edge="1">
          <mxGeometry width="50" height="50" relative="1" as="geometry">
            <mxPoint x="1525" y="1080" as="sourcePoint" />
            <mxPoint x="1575" y="1030" as="targetPoint" />
          </mxGeometry>
        </mxCell>
        <mxCell id="KcR6Oc8ULUUjkKVTyV3o-156" value="" style="endArrow=classic;html=1;rounded=0;" parent="1" edge="1">
          <mxGeometry width="50" height="50" relative="1" as="geometry">
            <mxPoint x="1525" y="1080" as="sourcePoint" />
            <mxPoint x="1575" y="1030" as="targetPoint" />
          </mxGeometry>
        </mxCell>
        <mxCell id="FEJOQUFaC0oeGkW2y8xq-1" value="&lt;span style=&quot;font-size: 18px;&quot;&gt;N&lt;/span&gt;" style="text;html=1;strokeColor=none;fillColor=none;align=center;verticalAlign=middle;whiteSpace=wrap;rounded=0;" vertex="1" parent="1">
          <mxGeometry x="1440" y="312.5" width="60" height="30" as="geometry" />
        </mxCell>
        <mxCell id="FEJOQUFaC0oeGkW2y8xq-4" value="&lt;font style=&quot;font-size: 18px;&quot;&gt;1&lt;/font&gt;" style="text;html=1;strokeColor=none;fillColor=none;align=center;verticalAlign=middle;whiteSpace=wrap;rounded=0;" vertex="1" parent="1">
          <mxGeometry x="1215" y="568" width="60" height="30" as="geometry" />
        </mxCell>
        <mxCell id="FEJOQUFaC0oeGkW2y8xq-5" value="&lt;span style=&quot;font-size: 18px;&quot;&gt;N&lt;/span&gt;" style="text;html=1;strokeColor=none;fillColor=none;align=center;verticalAlign=middle;whiteSpace=wrap;rounded=0;" vertex="1" parent="1">
          <mxGeometry x="640" y="320" width="60" height="30" as="geometry" />
        </mxCell>
        <mxCell id="FEJOQUFaC0oeGkW2y8xq-6" value="&lt;font style=&quot;font-size: 18px;&quot;&gt;N&lt;/font&gt;" style="text;html=1;strokeColor=none;fillColor=none;align=center;verticalAlign=middle;whiteSpace=wrap;rounded=0;" vertex="1" parent="1">
          <mxGeometry x="657.5" y="804" width="60" height="130" as="geometry" />
        </mxCell>
        <mxCell id="FEJOQUFaC0oeGkW2y8xq-13" value="&lt;font style=&quot;font-size: 18px;&quot;&gt;1&lt;/font&gt;" style="text;html=1;strokeColor=none;fillColor=none;align=center;verticalAlign=middle;whiteSpace=wrap;rounded=0;" vertex="1" parent="1">
          <mxGeometry x="1440" y="872" width="60" height="65" as="geometry" />
        </mxCell>
        <mxCell id="FEJOQUFaC0oeGkW2y8xq-14" style="edgeStyle=orthogonalEdgeStyle;rounded=0;orthogonalLoop=1;jettySize=auto;html=1;exitX=0.5;exitY=1;exitDx=0;exitDy=0;fontSize=18;" edge="1" parent="1" source="FEJOQUFaC0oeGkW2y8xq-6" target="FEJOQUFaC0oeGkW2y8xq-6">
          <mxGeometry relative="1" as="geometry" />
        </mxCell>
        <mxCell id="FEJOQUFaC0oeGkW2y8xq-57" value="" style="edgeStyle=orthogonalEdgeStyle;rounded=0;orthogonalLoop=1;jettySize=auto;html=1;fontSize=14;" edge="1" parent="1" source="FEJOQUFaC0oeGkW2y8xq-16" target="KcR6Oc8ULUUjkKVTyV3o-70">
          <mxGeometry relative="1" as="geometry" />
        </mxCell>
        <mxCell id="FEJOQUFaC0oeGkW2y8xq-16" value="&lt;font style=&quot;font-size: 14px;&quot;&gt;are asigned to&lt;/font&gt;" style="rhombus;whiteSpace=wrap;html=1;fontSize=18;" vertex="1" parent="1">
          <mxGeometry x="1380" y="360" width="150" height="90" as="geometry" />
        </mxCell>
        <mxCell id="FEJOQUFaC0oeGkW2y8xq-65" value="VARCHAR (16)" style="ellipse;whiteSpace=wrap;html=1;fontSize=18;" vertex="1" parent="1">
          <mxGeometry x="20" y="600" width="140" height="60" as="geometry" />
        </mxCell>
        <mxCell id="FEJOQUFaC0oeGkW2y8xq-67" value="VARCHAR (14)" style="ellipse;whiteSpace=wrap;html=1;fontSize=18;" vertex="1" parent="1">
          <mxGeometry x="30" y="520" width="140" height="60" as="geometry" />
        </mxCell>
        <mxCell id="FEJOQUFaC0oeGkW2y8xq-68" value="INT, Primary Key" style="ellipse;whiteSpace=wrap;html=1;fontSize=18;" vertex="1" parent="1">
          <mxGeometry x="320" y="780" width="140" height="45" as="geometry" />
        </mxCell>
        <mxCell id="FEJOQUFaC0oeGkW2y8xq-70" value="DATE" style="ellipse;whiteSpace=wrap;html=1;fontSize=18;" vertex="1" parent="1">
          <mxGeometry x="30" y="681.5" width="140" height="45" as="geometry" />
        </mxCell>
        <mxCell id="FEJOQUFaC0oeGkW2y8xq-72" value="INT, Foreign Key of Departments.dept_no" style="ellipse;whiteSpace=wrap;html=1;fontSize=18;" vertex="1" parent="1">
          <mxGeometry x="1790" y="920" width="350" height="60" as="geometry" />
        </mxCell>
        <mxCell id="FEJOQUFaC0oeGkW2y8xq-73" value="INT, Foreign Key of Employee.emp_no," style="ellipse;whiteSpace=wrap;html=1;fontSize=18;" vertex="1" parent="1">
          <mxGeometry x="1790" y="1001" width="350" height="59" as="geometry" />
        </mxCell>
        <mxCell id="FEJOQUFaC0oeGkW2y8xq-74" value="DATE, Greater or equal to employees.hire_date" style="ellipse;whiteSpace=wrap;html=1;fontSize=18;" vertex="1" parent="1">
          <mxGeometry x="1800" y="1072.5" width="340" height="57.5" as="geometry" />
        </mxCell>
        <mxCell id="FEJOQUFaC0oeGkW2y8xq-75" value="DATE, Greater or equal to Dept_manager.from_date" style="ellipse;whiteSpace=wrap;html=1;fontSize=18;" vertex="1" parent="1">
          <mxGeometry x="1790" y="1154" width="340" height="60" as="geometry" />
        </mxCell>
        <mxCell id="FEJOQUFaC0oeGkW2y8xq-82" value="INT, Foreign key of Employees.emp_no" style="ellipse;whiteSpace=wrap;html=1;fontSize=18;" vertex="1" parent="1">
          <mxGeometry x="380" y="1245" width="310" height="60" as="geometry" />
        </mxCell>
        <mxCell id="FEJOQUFaC0oeGkW2y8xq-85" value="INT" style="ellipse;whiteSpace=wrap;html=1;fontSize=18;" vertex="1" parent="1">
          <mxGeometry x="890" y="997.5" width="140" height="60" as="geometry" />
        </mxCell>
        <mxCell id="FEJOQUFaC0oeGkW2y8xq-86" value="DATE, Greater or equal Employees.hire_date" style="ellipse;whiteSpace=wrap;html=1;fontSize=18;" vertex="1" parent="1">
          <mxGeometry x="905" y="1080" width="310" height="60" as="geometry" />
        </mxCell>
        <mxCell id="FEJOQUFaC0oeGkW2y8xq-89" value="DATE, Greater or equal to Salary.from_date" style="ellipse;whiteSpace=wrap;html=1;fontSize=18;" vertex="1" parent="1">
          <mxGeometry x="770" y="1185" width="310" height="60" as="geometry" />
        </mxCell>
        <mxCell id="FEJOQUFaC0oeGkW2y8xq-93" value="&lt;font style=&quot;font-size: 18px;&quot;&gt;N&lt;/font&gt;" style="text;html=1;strokeColor=none;fillColor=none;align=center;verticalAlign=middle;whiteSpace=wrap;rounded=0;" vertex="1" parent="1">
          <mxGeometry x="970" y="557" width="60" height="30" as="geometry" />
        </mxCell>
        <mxCell id="FEJOQUFaC0oeGkW2y8xq-98" value="INT, &lt;br&gt;Foreign Key of Employee.emp_no" style="ellipse;whiteSpace=wrap;html=1;fontSize=18;" vertex="1" parent="1">
          <mxGeometry x="950" y="11" width="310" height="60" as="geometry" />
        </mxCell>
        <mxCell id="FEJOQUFaC0oeGkW2y8xq-99" value="INT&lt;br&gt;, Foreign Key of Employee.emp_no" style="ellipse;whiteSpace=wrap;html=1;fontSize=18;" vertex="1" parent="1">
          <mxGeometry x="1790" y="86" width="310" height="60" as="geometry" />
        </mxCell>
        <mxCell id="FEJOQUFaC0oeGkW2y8xq-100" value="INT, Foreign Key of&amp;nbsp; Departments.Dept_name" style="ellipse;whiteSpace=wrap;html=1;fontSize=18;" vertex="1" parent="1">
          <mxGeometry x="1780" y="11" width="310" height="60" as="geometry" />
        </mxCell>
        <mxCell id="FEJOQUFaC0oeGkW2y8xq-101" value="DATE, Greater or equal to Dept_emp.from_date" style="ellipse;whiteSpace=wrap;html=1;fontSize=18;" vertex="1" parent="1">
          <mxGeometry x="1800" y="252.5" width="310" height="60" as="geometry" />
        </mxCell>
        <mxCell id="FEJOQUFaC0oeGkW2y8xq-102" value="DATE" style="ellipse;whiteSpace=wrap;html=1;fontSize=18;" vertex="1" parent="1">
          <mxGeometry x="940" y="146" width="310" height="60" as="geometry" />
        </mxCell>
        <mxCell id="FEJOQUFaC0oeGkW2y8xq-103" value="&lt;font style=&quot;font-size: 18px;&quot;&gt;1&lt;/font&gt;" style="text;html=1;strokeColor=none;fillColor=none;align=center;verticalAlign=middle;whiteSpace=wrap;rounded=0;" vertex="1" parent="1">
          <mxGeometry x="780" y="437" width="60" height="30" as="geometry" />
        </mxCell>
        <mxCell id="FEJOQUFaC0oeGkW2y8xq-107" value="1" style="text;html=1;align=center;verticalAlign=middle;resizable=0;points=[];autosize=1;strokeColor=none;fillColor=none;fontSize=18;" vertex="1" parent="1">
          <mxGeometry x="1450" y="467" width="30" height="40" as="geometry" />
        </mxCell>
        <mxCell id="FEJOQUFaC0oeGkW2y8xq-108" value="&lt;font style=&quot;font-size: 18px;&quot;&gt;1&lt;/font&gt;" style="text;html=1;strokeColor=none;fillColor=none;align=center;verticalAlign=middle;whiteSpace=wrap;rounded=0;" vertex="1" parent="1">
          <mxGeometry x="770" y="750" width="60" height="30" as="geometry" />
        </mxCell>
        <mxCell id="FEJOQUFaC0oeGkW2y8xq-111" value="1" style="text;html=1;align=center;verticalAlign=middle;resizable=0;points=[];autosize=1;strokeColor=none;fillColor=none;fontSize=18;" vertex="1" parent="1">
          <mxGeometry x="1455" y="700" width="30" height="40" as="geometry" />
        </mxCell>
        <mxCell id="FEJOQUFaC0oeGkW2y8xq-112" value="enum(´F´,´M´)" style="ellipse;whiteSpace=wrap;html=1;fontSize=18;" vertex="1" parent="1">
          <mxGeometry x="250" y="385" width="140" height="60" as="geometry" />
        </mxCell>
        <mxCell id="FEJOQUFaC0oeGkW2y8xq-116" value="DATE, Greater or equal to Employees.Hire_date" style="ellipse;whiteSpace=wrap;html=1;fontSize=18;" vertex="1" parent="1">
          <mxGeometry x="1800" y="170" width="310" height="60" as="geometry" />
        </mxCell>
        <mxCell id="FEJOQUFaC0oeGkW2y8xq-131" value="INT, Primary Key" style="ellipse;whiteSpace=wrap;html=1;fontSize=18;" vertex="1" parent="1">
          <mxGeometry x="1850" y="587" width="310" height="60" as="geometry" />
        </mxCell>
        <mxCell id="FEJOQUFaC0oeGkW2y8xq-132" value="VARCHAR (40)" style="ellipse;whiteSpace=wrap;html=1;fontSize=18;" vertex="1" parent="1">
          <mxGeometry x="1840" y="508" width="310" height="60" as="geometry" />
        </mxCell>
        <mxCell id="FEJOQUFaC0oeGkW2y8xq-134" value="VARCHAR (59)" style="ellipse;whiteSpace=wrap;html=1;fontSize=18;" vertex="1" parent="1">
          <mxGeometry x="950" y="80" width="310" height="59" as="geometry" />
        </mxCell>
        <mxCell id="FEJOQUFaC0oeGkW2y8xq-135" value="DATE" style="ellipse;whiteSpace=wrap;html=1;fontSize=18;" vertex="1" parent="1">
          <mxGeometry x="90" y="445" width="120" height="60" as="geometry" />
        </mxCell>
        <mxCell id="FEJOQUFaC0oeGkW2y8xq-137" value="DATE" style="ellipse;whiteSpace=wrap;html=1;fontSize=18;" vertex="1" parent="1">
          <mxGeometry x="950" y="230" width="310" height="60" as="geometry" />
        </mxCell>
      </root>
    </mxGraphModel>
  </diagram>
</mxfile>
